<?xml version="1.0" encoding="UTF-8"?>
<svg id="Layer_2" data-name="Layer 2" xmlns="http://www.w3.org/2000/svg" viewBox="0 0 300 300">
  <defs>
    <style>
      .cls-1 {
        fill: #222;
      }

      .cls-1, .cls-2, .cls-3 {
        stroke-width: 0px;
      }

      .cls-2 {
        fill: #fff;
      }

      .cls-3 {
        fill: #0a9c9c;
      }
    </style>
  </defs>
  <g id="Layer_1-2" data-name="Layer 1">
    <circle class="cls-2" cx="150" cy="150" r="150"/>
    <path class="cls-1" d="M223.5,151.33c.22-23.58-13.36-41.92-31.74-55.19-2.97-2.1-6.62-4.84-10.28-4.15-3.24.62-6.46,4.52-7.53,8.77-2.69,9.2,5.66,12.61,11.53,18.46,4.21,3.98,13.85,16.41,12.57,21.53-.97,1.75-3.48,1.39-5.41,1.49-20.5-.51-77.31.69-95.09-.82-3.69-1.95,2.33-10.49,5.02-14.64,2.44-3.44,5.26-6.59,8.39-9.38,4.06-3.69,8.18-5.86,9.63-10.11,1.92-5.62-2.21-14.17-7.23-15.55-8.39-2.07-25.11,16.93-29.11,24.16-35.45,59.4,16.84,139.82,85.09,118.82,7.07-2.23,25.8-9.68,26.28-17.79.52-6.15-5.3-16.53-12.68-13.21-6.06,3.29-12.12,7.87-19.01,9.76-25.98,8.68-55.52-4.7-66.61-29.66-2.62-5.85-6.78-18.39-4.12-22.78.84-.99,1.93-1.13,3.32-1.22,18.76-.08,103.96,3.2,122.68-.12,2.29-.4,4.29-3.4,4.29-5.4v-3Z"/>
    <path class="cls-3" d="M149.4,127.87c10-6,16.65-34.46,23.43-50.4,1.16-2.62,2.4-5.71,4.42-7.49,5.2-5.4,24.26,9.04,28.99,13,46.54,38.73,43.17,114.28-5.5,148.57-4.25,3.22-7.95,5.65-8.32,10.72-.38,5.75,4,15.28,10.63,15.44,2.77-.05,5.66-1.69,8.14-3.31,74.72-49.94,68.58-163.78-11.11-205.13-6.87-3.38-23.43-11.03-30.37-9.06-4.26,1.45-6.2,6.17-8.05,10.02-3.17,7.07-7.29,16.81-9.78,22.09-.84,1.38-1.96,4.83-3.93,3.81-1.01-.7-1.67-2.05-2.3-3.2-2.49-5-6.14-13.76-8.87-19.92-2.51-6.24-5.8-12.9-13.41-12.79-3.57-.21-7.73,1.11-11.85,2.52-5.19,1.78-10.34,3.97-15.36,6.56-59.65,29.75-81.87,109.02-47.38,166.55,9.27,16.05,22.49,29.84,37.84,39.64,4.27,2.63,7.67,4.59,11.25,2.96,5.87-3.11,10.2-14.42,5.72-20.19-1.73-2.33-4.68-4.2-7.76-6.42-15.64-11.07-27.75-27.64-33.94-45.9-16.27-45.74,7.29-101.27,52.99-117.28,1.95-.3,3.63.14,5.09,1.56,1.8,1.76,2.97,4.42,4.06,6.83,6.33,14.36,12.34,47.83,22.32,50.73"/>
  </g>
</svg>